STARTFONT 2.1
FONT -FontForge-Bitstream Vera Sans-Book-R-Normal-Sans--28-200-100-100-P-168-ISO8859-1
SIZE 20 100 100
FONTBOUNDINGBOX 42 34 -5 -7
COMMENT "Generated by fontforge, http://fontforge.sourceforge.net"
COMMENT "Copyright (c) 2003 by Bitstream, Inc. All Rights Reserved."
STARTPROPERTIES 40
FOUNDRY "FontForge"
FAMILY_NAME "Bitstream Vera Sans"
WEIGHT_NAME "Book"
SLANT "R"
SETWIDTH_NAME "Normal"
ADD_STYLE_NAME "Sans"
PIXEL_SIZE 28
POINT_SIZE 200
RESOLUTION_X 100
RESOLUTION_Y 100
SPACING "P"
AVERAGE_WIDTH 168
CHARSET_REGISTRY "ISO8859"
CHARSET_ENCODING "1"
FONTNAME_REGISTRY ""
CHARSET_COLLECTIONS "ISO8859-9 ISOLatin1Encoding"
FONT_NAME "BitstreamVeraSans-Roman"
FACE_NAME "Bitstream Vera Sans"
COPYRIGHT "Copyright (c) 2003 by Bitstream, Inc. All Rights Reserved."
FONT_VERSION "Release 1.10"
FONT_ASCENT 21
FONT_DESCENT 7
UNDERLINE_POSITION -4
UNDERLINE_THICKNESS 2
X_HEIGHT 14
CAP_HEIGHT 19
RAW_ASCENT 759
RAW_DESCENT 240
NORM_SPACE 9
RELATIVE_WEIGHT 40
RELATIVE_SETWIDTH 50
SUPERSCRIPT_X 0
SUPERSCRIPT_Y 8
SUPERSCRIPT_SIZE 16
SUBSCRIPT_X 0
SUBSCRIPT_Y -6
SUBSCRIPT_SIZE 16
FIGURE_WIDTH 18
AVG_LOWERCASE_WIDTH 161
AVG_UPPERCASE_WIDTH 187
ENDPROPERTIES
CHARS 268
STARTCHAR space
ENCODING 32
SWIDTH 317 0
DWIDTH 9 0
BBX 1 1 0 0
BITMAP
00
ENDCHAR
STARTCHAR exclam
ENCODING 33
SWIDTH 400 0
DWIDTH 11 0
BBX 3 20 4 0
BITMAP
E0
E0
E0
E0
E0
E0
E0
E0
E0
E0
E0
E0
E0
E0
00
00
00
E0
E0
E0
ENDCHAR
STARTCHAR quotedbl
ENCODING 34
SWIDTH 459 0
DWIDTH 13 0
BBX 7 8 3 12
BITMAP
C6
C6
C6
C6
C6
C6
C6
C6
ENDCHAR
STARTCHAR numbersign
ENCODING 35
SWIDTH 837 0
DWIDTH 23 0
BBX 19 21 2 0
BITMAP
00C300
01C300
018700
018600
018600
018600
3FFFE0
3FFFE0
030C00
030C00
071C00
061800
061800
FFFF80
FFFF80
0C3000
0C3000
0C3000
1C3000
187000
186000
ENDCHAR
STARTCHAR dollar
ENCODING 36
SWIDTH 636 0
DWIDTH 18 0
BBX 13 25 2 -4
BITMAP
0200
0200
0200
1FC0
3FF0
7230
E200
E200
E200
F200
7E00
7FC0
1FF0
03F0
0278
0238
0238
0238
C270
FFE0
3FC0
0200
0200
0200
0200
ENDCHAR
STARTCHAR percent
ENCODING 37
SWIDTH 950 0
DWIDTH 27 0
BBX 24 20 2 0
BITMAP
3E0070
7F0060
6300C0
C181C0
C18380
C18300
C18700
C18E00
630C00
7F1C7C
3E38FE
0030C6
007183
00E183
00C183
01C183
038183
0300C6
0700FE
0E007C
ENDCHAR
STARTCHAR ampersand
ENCODING 38
SWIDTH 779 0
DWIDTH 22 0
BBX 18 20 2 0
BITMAP
07E000
1FF000
3C1000
380000
380000
380000
3C0000
1E0000
3F0000
3781C0
63C1C0
E1E180
E0F380
E07300
E07F00
E03E00
701E00
783F00
3FF780
0FC3C0
ENDCHAR
STARTCHAR quotesingle
ENCODING 39
SWIDTH 274 0
DWIDTH 8 0
BBX 2 8 3 12
BITMAP
C0
C0
C0
C0
C0
C0
C0
C0
ENDCHAR
STARTCHAR parenleft
ENCODING 40
SWIDTH 390 0
DWIDTH 11 0
BBX 6 25 2 -4
BITMAP
0C
18
18
38
30
70
70
60
E0
E0
E0
E0
E0
E0
E0
E0
E0
60
70
70
30
38
18
18
0C
ENDCHAR
STARTCHAR parenright
ENCODING 41
SWIDTH 390 0
DWIDTH 11 0
BBX 6 25 2 -4
BITMAP
C0
60
60
70
30
38
38
18
1C
1C
1C
1C
1C
1C
1C
1C
1C
18
38
38
30
70
60
60
C0
ENDCHAR
STARTCHAR asterisk
ENCODING 42
SWIDTH 500 0
DWIDTH 14 0
BBX 12 12 1 8
BITMAP
0600
0600
C630
E670
3FC0
0F00
0F00
3FC0
E670
C630
0600
0600
ENDCHAR
STARTCHAR plus
ENCODING 43
SWIDTH 837 0
DWIDTH 23 0
BBX 18 18 3 0
BITMAP
00C000
00C000
00C000
00C000
00C000
00C000
00C000
00C000
FFFFC0
FFFFC0
00C000
00C000
00C000
00C000
00C000
00C000
00C000
00C000
ENDCHAR
STARTCHAR comma
ENCODING 44
SWIDTH 317 0
DWIDTH 9 0
BBX 4 7 2 -4
BITMAP
70
70
70
70
60
E0
C0
ENDCHAR
STARTCHAR hyphen
ENCODING 45
SWIDTH 360 0
DWIDTH 10 0
BBX 7 2 1 7
BITMAP
FE
FE
ENDCHAR
STARTCHAR period
ENCODING 46
SWIDTH 317 0
DWIDTH 9 0
BBX 3 3 3 0
BITMAP
E0
E0
E0
ENDCHAR
STARTCHAR slash
ENCODING 47
SWIDTH 336 0
DWIDTH 9 0
BBX 9 23 0 -3
BITMAP
0180
0380
0300
0300
0300
0600
0600
0600
0C00
0C00
0C00
1C00
1800
1800
1800
3000
3000
3000
6000
6000
6000
E000
C000
ENDCHAR
STARTCHAR zero
ENCODING 48
SWIDTH 636 0
DWIDTH 18 0
BBX 14 20 2 0
BITMAP
0FC0
1FE0
3870
7038
7038
E018
E01C
E01C
E01C
E01C
E01C
E01C
E01C
E01C
E018
7038
7038
3870
1FE0
0FC0
ENDCHAR
STARTCHAR one
ENCODING 49
SWIDTH 636 0
DWIDTH 18 0
BBX 13 20 3 0
BITMAP
1F00
FF00
E700
0700
0700
0700
0700
0700
0700
0700
0700
0700
0700
0700
0700
0700
0700
0700
FFF8
FFF8
ENDCHAR
STARTCHAR two
ENCODING 50
SWIDTH 636 0
DWIDTH 18 0
BBX 13 20 2 0
BITMAP
3F80
FFE0
E0F0
8078
0038
0038
0038
0038
0078
00F0
01E0
03C0
0780
0F80
1F00
3E00
7C00
F800
FFF8
FFF8
ENDCHAR
STARTCHAR three
ENCODING 51
SWIDTH 636 0
DWIDTH 18 0
BBX 13 20 2 0
BITMAP
1F80
7FE0
60E0
0070
0070
0070
0070
00E0
0FC0
0FC0
00F0
0070
0038
0038
0038
0038
0070
80F0
FFE0
3F80
ENDCHAR
STARTCHAR four
ENCODING 52
SWIDTH 636 0
DWIDTH 18 0
BBX 15 20 1 0
BITMAP
00F0
01F0
01F0
03F0
0770
0670
0C70
1C70
1870
3070
7070
6070
C070
FFFE
FFFE
0070
0070
0070
0070
0070
ENDCHAR
STARTCHAR five
ENCODING 53
SWIDTH 636 0
DWIDTH 18 0
BBX 13 20 2 0
BITMAP
7FE0
7FE0
7000
7000
7000
7000
7F80
7FE0
41F0
0070
0078
0038
0038
0038
0038
0078
0070
81F0
FFE0
3F80
ENDCHAR
STARTCHAR six
ENCODING 54
SWIDTH 636 0
DWIDTH 18 0
BBX 14 20 2 0
BITMAP
03F0
0FF8
1C08
3800
7000
7000
E000
E7C0
EFF0
F878
F038
E01C
E01C
E01C
601C
601C
7038
3878
1FF0
07C0
ENDCHAR
STARTCHAR seven
ENCODING 55
SWIDTH 636 0
DWIDTH 18 0
BBX 13 20 2 0
BITMAP
FFF8
FFF8
0078
0070
0070
00E0
00E0
00E0
01C0
01C0
03C0
0380
0380
0780
0700
0700
0E00
0E00
0E00
1C00
ENDCHAR
STARTCHAR eight
ENCODING 56
SWIDTH 636 0
DWIDTH 18 0
BBX 14 20 2 0
BITMAP
0FE0
3FF0
7878
E01C
E01C
E01C
E01C
7878
1FE0
1FE0
7878
7038
E01C
E01C
E01C
E01C
F03C
7878
3FF0
0FC0
ENDCHAR
STARTCHAR nine
ENCODING 57
SWIDTH 636 0
DWIDTH 18 0
BBX 14 20 2 0
BITMAP
0F80
3FE0
7870
7038
E018
E018
E01C
E01C
E01C
703C
787C
3FDC
0F9C
001C
0038
0038
0070
40E0
7FC0
3F00
ENDCHAR
STARTCHAR colon
ENCODING 58
SWIDTH 336 0
DWIDTH 9 0
BBX 3 14 3 0
BITMAP
E0
E0
E0
00
00
00
00
00
00
00
00
E0
E0
E0
ENDCHAR
STARTCHAR semicolon
ENCODING 59
SWIDTH 336 0
DWIDTH 9 0
BBX 4 18 2 -4
BITMAP
70
70
70
00
00
00
00
00
00
00
00
70
70
70
70
60
E0
C0
ENDCHAR
STARTCHAR less
ENCODING 60
SWIDTH 837 0
DWIDTH 23 0
BBX 18 15 3 1
BITMAP
000040
0003C0
001F80
00FC00
07E000
3F0000
FC0000
E00000
FC0000
3F0000
07E000
00FC00
001F80
0003C0
000040
ENDCHAR
STARTCHAR equal
ENCODING 61
SWIDTH 837 0
DWIDTH 23 0
BBX 18 7 3 5
BITMAP
FFFFC0
FFFFC0
000000
000000
000000
FFFFC0
FFFFC0
ENDCHAR
STARTCHAR greater
ENCODING 62
SWIDTH 837 0
DWIDTH 23 0
BBX 18 15 3 1
BITMAP
800000
F00000
7E0000
0FC000
01F800
003F00
000FC0
0001C0
000FC0
003F00
01F800
0FC000
7E0000
F00000
800000
ENDCHAR
STARTCHAR question
ENCODING 63
SWIDTH 530 0
DWIDTH 15 0
BBX 11 20 2 0
BITMAP
1F00
7FC0
E1C0
80E0
00E0
00E0
01E0
03C0
0780
0F00
0E00
1C00
1C00
1C00
1C00
0000
0000
1C00
1C00
1C00
ENDCHAR
STARTCHAR at
ENCODING 64
SWIDTH 1000 0
DWIDTH 28 0
BBX 25 25 2 -5
BITMAP
007F8000
01FFE000
07C0F800
0E001C00
1C000E00
38000600
303E6300
60FF6300
61C1E180
C180E180
C3006180
C3006180
C3006180
C3006180
C3006300
C180E300
61C1EE00
60FF7C00
707E7000
38000000
1C000000
0E001000
07807800
01FFF000
007F8000
ENDCHAR
STARTCHAR A
ENCODING 65
SWIDTH 684 0
DWIDTH 19 0
BBX 19 20 0 0
BITMAP
00E000
01F000
01F000
01F000
03B800
03B800
07BC00
071C00
071C00
0E0E00
0E0E00
1E0F00
1FFF00
1FFF00
380380
380380
7803C0
7001C0
7001C0
E000E0
ENDCHAR
STARTCHAR B
ENCODING 66
SWIDTH 686 0
DWIDTH 19 0
BBX 14 20 3 0
BITMAP
FFC0
FFF0
E070
E038
E038
E038
E038
E070
FFE0
FFE0
E078
E038
E01C
E01C
E01C
E01C
E03C
E078
FFF0
FFC0
ENDCHAR
STARTCHAR C
ENCODING 67
SWIDTH 698 0
DWIDTH 20 0
BBX 16 20 2 0
BITMAP
03F8
0FFE
1E07
3803
7000
7000
E000
E000
E000
E000
E000
E000
E000
E000
7000
7000
3803
1E07
0FFE
03F8
ENDCHAR
STARTCHAR D
ENCODING 68
SWIDTH 770 0
DWIDTH 22 0
BBX 17 20 3 0
BITMAP
FFC000
FFF800
E03C00
E00E00
E00700
E00700
E00380
E00380
E00380
E00380
E00380
E00380
E00380
E00380
E00700
E00700
E00E00
E03C00
FFF800
FFC000
ENDCHAR
STARTCHAR E
ENCODING 69
SWIDTH 631 0
DWIDTH 18 0
BBX 13 20 3 0
BITMAP
FFF8
FFF8
E000
E000
E000
E000
E000
E000
FFF0
FFF0
E000
E000
E000
E000
E000
E000
E000
E000
FFF8
FFF8
ENDCHAR
STARTCHAR F
ENCODING 70
SWIDTH 575 0
DWIDTH 16 0
BBX 12 20 3 0
BITMAP
FFF0
FFF0
E000
E000
E000
E000
E000
E000
FFE0
FFE0
E000
E000
E000
E000
E000
E000
E000
E000
E000
E000
ENDCHAR
STARTCHAR G
ENCODING 71
SWIDTH 774 0
DWIDTH 22 0
BBX 18 20 2 0
BITMAP
03FC00
0FFF00
1E0780
380180
700080
700000
E00000
E00000
E00000
E03FC0
E03FC0
E001C0
E001C0
E001C0
7001C0
7001C0
3801C0
1E03C0
0FFF80
03FC00
ENDCHAR
STARTCHAR H
ENCODING 72
SWIDTH 751 0
DWIDTH 21 0
BBX 16 20 3 0
BITMAP
E007
E007
E007
E007
E007
E007
E007
E007
FFFF
FFFF
E007
E007
E007
E007
E007
E007
E007
E007
E007
E007
ENDCHAR
STARTCHAR I
ENCODING 73
SWIDTH 294 0
DWIDTH 8 0
BBX 3 20 3 0
BITMAP
E0
E0
E0
E0
E0
E0
E0
E0
E0
E0
E0
E0
E0
E0
E0
E0
E0
E0
E0
E0
ENDCHAR
STARTCHAR J
ENCODING 74
SWIDTH 294 0
DWIDTH 8 0
BBX 7 26 -1 -6
BITMAP
0E
0E
0E
0E
0E
0E
0E
0E
0E
0E
0E
0E
0E
0E
0E
0E
0E
0E
0E
0E
0E
0E
0E
1C
F8
F0
ENDCHAR
STARTCHAR K
ENCODING 75
SWIDTH 655 0
DWIDTH 18 0
BBX 16 20 3 0
BITMAP
E03C
E078
E0F0
E1E0
E3C0
E780
EF00
FE00
FC00
FC00
FE00
FF00
EF80
E7C0
E3E0
E1F0
E0F8
E07C
E03E
E01F
ENDCHAR
STARTCHAR L
ENCODING 76
SWIDTH 557 0
DWIDTH 16 0
BBX 13 20 3 0
BITMAP
E000
E000
E000
E000
E000
E000
E000
E000
E000
E000
E000
E000
E000
E000
E000
E000
E000
E000
FFF8
FFF8
ENDCHAR
STARTCHAR M
ENCODING 77
SWIDTH 862 0
DWIDTH 24 0
BBX 19 20 3 0
BITMAP
F803E0
FC07E0
FC07E0
FE0FE0
EE0EE0
EE0EE0
E71CE0
E71CE0
E7BCE0
E3B8E0
E3B8E0
E3F8E0
E1F0E0
E1F0E0
E0E0E0
E0E0E0
E000E0
E000E0
E000E0
E000E0
ENDCHAR
STARTCHAR N
ENCODING 78
SWIDTH 748 0
DWIDTH 21 0
BBX 15 20 3 0
BITMAP
F00E
F80E
F80E
FC0E
FC0E
FE0E
EE0E
EF0E
E78E
E38E
E3CE
E1CE
E1EE
E0EE
E0FE
E07E
E07E
E03E
E03E
E01E
ENDCHAR
STARTCHAR O
ENCODING 79
SWIDTH 787 0
DWIDTH 22 0
BBX 19 20 2 0
BITMAP
03F800
0FFE00
1E0F00
380380
7803C0
7001C0
F001E0
E000E0
E000E0
E000E0
E000E0
E000E0
E000E0
E001E0
7001C0
7001C0
380380
1E0F00
0FFE00
03F800
ENDCHAR
STARTCHAR P
ENCODING 80
SWIDTH 603 0
DWIDTH 17 0
BBX 13 20 3 0
BITMAP
FF80
FFE0
E0F0
E078
E038
E038
E038
E038
E078
E0F0
FFE0
FF80
E000
E000
E000
E000
E000
E000
E000
E000
ENDCHAR
STARTCHAR Q
ENCODING 81
SWIDTH 787 0
DWIDTH 22 0
BBX 19 24 2 -4
BITMAP
03F800
0FFE00
1E0F00
380380
7803C0
7001C0
F001E0
E000E0
E000E0
E000E0
E000E0
E000E0
E000E0
E001E0
7001C0
7001C0
380380
1E0F00
0FFE00
03FC00
003C00
001E00
000F00
000780
ENDCHAR
STARTCHAR R
ENCODING 82
SWIDTH 694 0
DWIDTH 19 0
BBX 16 20 3 0
BITMAP
FFC0
FFE0
E0F0
E078
E038
E038
E038
E038
E078
E0F0
FFE0
FFC0
E0E0
E070
E078
E038
E03C
E01E
E00E
E00F
ENDCHAR
STARTCHAR S
ENCODING 83
SWIDTH 634 0
DWIDTH 18 0
BBX 14 20 2 0
BITMAP
0FE0
3FF8
7838
F008
E000
E000
E000
F800
7F80
3FE0
0FF8
00F8
003C
001C
001C
001C
803C
E078
FFF0
3FC0
ENDCHAR
STARTCHAR T
ENCODING 84
SWIDTH 610 0
DWIDTH 17 0
BBX 17 20 0 0
BITMAP
FFFF80
FFFF80
01C000
01C000
01C000
01C000
01C000
01C000
01C000
01C000
01C000
01C000
01C000
01C000
01C000
01C000
01C000
01C000
01C000
01C000
ENDCHAR
STARTCHAR U
ENCODING 85
SWIDTH 731 0
DWIDTH 21 0
BBX 16 20 3 0
BITMAP
E007
E007
E007
E007
E007
E007
E007
E007
E007
E007
E007
E007
E007
E007
E007
F00F
700E
781E
3FF8
0FF0
ENDCHAR
STARTCHAR V
ENCODING 86
SWIDTH 684 0
DWIDTH 19 0
BBX 19 20 0 0
BITMAP
E000E0
7001C0
7001C0
7803C0
380380
380380
1C0700
1C0700
1E0F00
0E0E00
0E0E00
071C00
071C00
07BC00
03B800
03B800
01F000
01F000
01F000
00E000
ENDCHAR
STARTCHAR W
ENCODING 87
SWIDTH 988 0
DWIDTH 28 0
BBX 26 20 1 0
BITMAP
E01E01C0
E01E03C0
701E0380
701E0380
703F0380
78330780
38330700
38330700
38738700
3C618F00
1C618E00
1C618E00
1CE1CE00
1EC0DE00
0EC0DC00
0EC0DC00
0FC0FC00
0F807C00
07807800
07807800
ENDCHAR
STARTCHAR X
ENCODING 88
SWIDTH 685 0
DWIDTH 19 0
BBX 17 20 1 0
BITMAP
780780
3C0F00
1C0E00
1E1E00
0F3C00
073800
07F800
03F000
01E000
01E000
03E000
03F000
07F000
0F7800
0E3C00
1E1C00
3C1E00
380E00
780700
F00780
ENDCHAR
STARTCHAR Y
ENCODING 89
SWIDTH 610 0
DWIDTH 17 0
BBX 17 20 0 0
BITMAP
F00780
780F00
380E00
3C1E00
1E3C00
0E3800
0F7800
07F000
03E000
03E000
01C000
01C000
01C000
01C000
01C000
01C000
01C000
01C000
01C000
01C000
ENDCHAR
STARTCHAR Z
ENCODING 90
SWIDTH 685 0
DWIDTH 19 0
BBX 17 20 1 0
BITMAP
FFFF80
FFFF80
000780
000F00
001E00
003C00
007800
007800
00F000
01E000
03C000
078000
0F0000
0F0000
1E0000
3C0000
780000
F00000
FFFF80
FFFF80
ENDCHAR
STARTCHAR bracketleft
ENCODING 91
SWIDTH 390 0
DWIDTH 11 0
BBX 6 25 2 -4
BITMAP
FC
FC
E0
E0
E0
E0
E0
E0
E0
E0
E0
E0
E0
E0
E0
E0
E0
E0
E0
E0
E0
E0
E0
FC
FC
ENDCHAR
STARTCHAR backslash
ENCODING 92
SWIDTH 336 0
DWIDTH 9 0
BBX 9 23 0 -3
BITMAP
C000
E000
6000
6000
6000
3000
3000
3000
1800
1800
1800
1C00
0C00
0C00
0C00
0600
0600
0600
0300
0300
0300
0380
0180
ENDCHAR
STARTCHAR bracketright
ENCODING 93
SWIDTH 390 0
DWIDTH 11 0
BBX 6 25 3 -4
BITMAP
FC
FC
1C
1C
1C
1C
1C
1C
1C
1C
1C
1C
1C
1C
1C
1C
1C
1C
1C
1C
1C
1C
1C
FC
FC
ENDCHAR
STARTCHAR asciicircum
ENCODING 94
SWIDTH 837 0
DWIDTH 23 0
BBX 18 8 3 12
BITMAP
01E000
03F000
07F800
0F3C00
1E1E00
3C0F00
700380
E001C0
ENDCHAR
STARTCHAR underscore
ENCODING 95
SWIDTH 500 0
DWIDTH 14 0
BBX 14 2 0 -7
BITMAP
FFFC
FFFC
ENDCHAR
STARTCHAR grave
ENCODING 96
SWIDTH 500 0
DWIDTH 14 0
BBX 7 5 2 17
BITMAP
E0
70
38
1C
0E
ENDCHAR
STARTCHAR a
ENCODING 97
SWIDTH 612 0
DWIDTH 17 0
BBX 13 15 2 0
BITMAP
1FC0
7FE0
40F0
0038
0038
1FF8
7FF8
7038
E038
E038
E078
E078
F0F8
7FB8
1F38
ENDCHAR
STARTCHAR b
ENCODING 98
SWIDTH 634 0
DWIDTH 18 0
BBX 14 21 3 0
BITMAP
E000
E000
E000
E000
E000
E000
E7C0
EFF0
F878
F038
F03C
E01C
E01C
E01C
E01C
E01C
E03C
F038
F878
EFF0
E7C0
ENDCHAR
STARTCHAR c
ENCODING 99
SWIDTH 549 0
DWIDTH 15 0
BBX 12 15 2 0
BITMAP
0FE0
1FF0
3C10
7000
F000
E000
E000
E000
E000
E000
F000
7000
3C10
1FF0
0FE0
ENDCHAR
STARTCHAR d
ENCODING 100
SWIDTH 634 0
DWIDTH 18 0
BBX 14 21 2 0
BITMAP
001C
001C
001C
001C
001C
001C
0F9C
3FDC
787C
703C
F03C
E01C
E01C
E01C
E01C
E01C
E03C
703C
787C
3FDC
0F9C
ENDCHAR
STARTCHAR e
ENCODING 101
SWIDTH 615 0
DWIDTH 17 0
BBX 14 15 2 0
BITMAP
0FC0
1FF0
3878
7038
F01C
E01C
FFFC
FFFC
E000
E000
E000
7000
3808
1FF8
0FE0
ENDCHAR
STARTCHAR f
ENCODING 102
SWIDTH 352 0
DWIDTH 10 0
BBX 10 21 1 0
BITMAP
0FC0
1FC0
3C00
3800
3800
3800
FF80
FF80
3800
3800
3800
3800
3800
3800
3800
3800
3800
3800
3800
3800
3800
ENDCHAR
STARTCHAR g
ENCODING 103
SWIDTH 634 0
DWIDTH 18 0
BBX 14 21 2 -6
BITMAP
0F9C
3FDC
787C
703C
E03C
E01C
E01C
E01C
E01C
E01C
E03C
703C
787C
3FDC
0F9C
001C
003C
0038
2078
3FF0
1FC0
ENDCHAR
STARTCHAR h
ENCODING 104
SWIDTH 633 0
DWIDTH 18 0
BBX 13 21 3 0
BITMAP
E000
E000
E000
E000
E000
E000
E3C0
EFF0
F870
F078
E038
E038
E038
E038
E038
E038
E038
E038
E038
E038
E038
ENDCHAR
STARTCHAR i
ENCODING 105
SWIDTH 277 0
DWIDTH 8 0
BBX 3 21 3 0
BITMAP
E0
E0
E0
00
00
00
E0
E0
E0
E0
E0
E0
E0
E0
E0
E0
E0
E0
E0
E0
E0
ENDCHAR
STARTCHAR j
ENCODING 106
SWIDTH 277 0
DWIDTH 8 0
BBX 6 27 0 -6
BITMAP
1C
1C
1C
00
00
00
1C
1C
1C
1C
1C
1C
1C
1C
1C
1C
1C
1C
1C
1C
1C
1C
1C
1C
3C
F8
F0
ENDCHAR
STARTCHAR k
ENCODING 107
SWIDTH 579 0
DWIDTH 16 0
BBX 13 21 3 0
BITMAP
E000
E000
E000
E000
E000
E000
E078
E0F0
E3E0
E7C0
EF80
FE00
FC00
FC00
FE00
EF00
E780
E3C0
E1E0
E0F0
E078
ENDCHAR
STARTCHAR l
ENCODING 108
SWIDTH 277 0
DWIDTH 8 0
BBX 3 21 3 0
BITMAP
E0
E0
E0
E0
E0
E0
E0
E0
E0
E0
E0
E0
E0
E0
E0
E0
E0
E0
E0
E0
E0
ENDCHAR
STARTCHAR m
ENCODING 109
SWIDTH 974 0
DWIDTH 27 0
BBX 21 15 3 0
BITMAP
E783E0
EFE7F0
F8EC70
F07838
E07038
E07038
E07038
E07038
E07038
E07038
E07038
E07038
E07038
E07038
E07038
ENDCHAR
STARTCHAR n
ENCODING 110
SWIDTH 633 0
DWIDTH 18 0
BBX 13 15 3 0
BITMAP
E3C0
EFF0
F870
F078
E038
E038
E038
E038
E038
E038
E038
E038
E038
E038
E038
ENDCHAR
STARTCHAR o
ENCODING 111
SWIDTH 611 0
DWIDTH 17 0
BBX 14 15 2 0
BITMAP
0FC0
3FF0
7878
7038
F03C
E01C
E01C
E01C
E01C
E01C
F03C
7038
7878
3FF0
0FC0
ENDCHAR
STARTCHAR p
ENCODING 112
SWIDTH 634 0
DWIDTH 18 0
BBX 14 21 3 -6
BITMAP
E7C0
EFF0
F878
F038
F03C
E01C
E01C
E01C
E01C
E01C
E03C
F038
F878
EFF0
E7C0
E000
E000
E000
E000
E000
E000
ENDCHAR
STARTCHAR q
ENCODING 113
SWIDTH 634 0
DWIDTH 18 0
BBX 14 21 2 -6
BITMAP
0F9C
3FDC
787C
703C
F03C
E01C
E01C
E01C
E01C
E01C
E03C
703C
787C
3FDC
0F9C
001C
001C
001C
001C
001C
001C
ENDCHAR
STARTCHAR r
ENCODING 114
SWIDTH 411 0
DWIDTH 12 0
BBX 9 15 3 0
BITMAP
E780
EF80
F880
F000
E000
E000
E000
E000
E000
E000
E000
E000
E000
E000
E000
ENDCHAR
STARTCHAR s
ENCODING 115
SWIDTH 520 0
DWIDTH 15 0
BBX 12 15 2 0
BITMAP
1FC0
7FE0
F020
E000
E000
F000
7E00
3FC0
07E0
00F0
0070
0070
C0F0
FFE0
3F80
ENDCHAR
STARTCHAR t
ENCODING 116
SWIDTH 392 0
DWIDTH 11 0
BBX 10 19 1 0
BITMAP
3800
3800
3800
3800
FFC0
FFC0
3800
3800
3800
3800
3800
3800
3800
3800
3800
3800
3C00
1FC0
0FC0
ENDCHAR
STARTCHAR u
ENCODING 117
SWIDTH 633 0
DWIDTH 18 0
BBX 13 15 3 0
BITMAP
E038
E038
E038
E038
E038
E038
E038
E038
E038
E038
E038
F078
70F8
7FB8
1E38
ENDCHAR
STARTCHAR v
ENCODING 118
SWIDTH 591 0
DWIDTH 17 0
BBX 15 15 1 0
BITMAP
E00E
701C
701C
783C
3838
3838
1C78
1C70
1CF0
0EE0
0EE0
0FE0
07C0
07C0
0380
ENDCHAR
STARTCHAR w
ENCODING 119
SWIDTH 817 0
DWIDTH 23 0
BBX 21 15 1 0
BITMAP
E07038
F07078
70F870
70D870
70D870
78D8F0
398CE0
398CE0
398CE0
1D8DC0
1F07C0
1F07C0
1F07C0
0F0780
0E0380
ENDCHAR
STARTCHAR x
ENCODING 120
SWIDTH 591 0
DWIDTH 17 0
BBX 15 15 1 0
BITMAP
781E
3C3C
1E78
0E70
0FF0
07E0
03C0
03C0
07C0
0FE0
0FF0
1E78
3C38
783C
F01E
ENDCHAR
STARTCHAR y
ENCODING 121
SWIDTH 591 0
DWIDTH 17 0
BBX 15 21 1 -6
BITMAP
E00E
701C
701C
783C
3838
3878
1C70
1C70
1EE0
0EE0
0FE0
07C0
07C0
0780
0380
0780
0700
0F00
0E00
7E00
7800
ENDCHAR
STARTCHAR z
ENCODING 122
SWIDTH 524 0
DWIDTH 15 0
BBX 12 15 1 0
BITMAP
FFF0
FFF0
00F0
01E0
03C0
03C0
0780
0F00
1E00
1C00
3C00
7800
F000
FFF0
FFF0
ENDCHAR
STARTCHAR braceleft
ENCODING 123
SWIDTH 636 0
DWIDTH 18 0
BBX 11 26 4 -5
BITMAP
03E0
07E0
0F00
0E00
0E00
0E00
0E00
0E00
0E00
0E00
0E00
1C00
F800
F800
1C00
0E00
0E00
0E00
0E00
0E00
0E00
0E00
0E00
0F00
07E0
03E0
ENDCHAR
STARTCHAR bar
ENCODING 124
SWIDTH 336 0
DWIDTH 9 0
BBX 2 28 4 -7
BITMAP
C0
C0
C0
C0
C0
C0
C0
C0
C0
C0
C0
C0
C0
C0
C0
C0
C0
C0
C0
C0
C0
C0
C0
C0
C0
C0
C0
C0
ENDCHAR
STARTCHAR braceright
ENCODING 125
SWIDTH 636 0
DWIDTH 18 0
BBX 11 26 4 -5
BITMAP
F800
FC00
1E00
0E00
0E00
0E00
0E00
0E00
0E00
0E00
0E00
0700
03E0
03E0
0700
0E00
0E00
0E00
0E00
0E00
0E00
0E00
0E00
1E00
FC00
F800
ENDCHAR
STARTCHAR asciitilde
ENCODING 126
SWIDTH 837 0
DWIDTH 23 0
BBX 18 4 3 7
BITMAP
1F0040
7FE1C0
E1FF80
803E00
ENDCHAR
STARTCHAR nonbreakingspace
ENCODING 160
SWIDTH 636 0
DWIDTH 18 0
BBX 1 1 0 0
BITMAP
00
ENDCHAR
STARTCHAR exclamdown
ENCODING 161
SWIDTH 400 0
DWIDTH 11 0
BBX 3 20 4 0
BITMAP
E0
E0
E0
00
00
00
E0
E0
E0
E0
E0
E0
E0
E0
E0
E0
E0
E0
E0
E0
ENDCHAR
STARTCHAR cent
ENCODING 162
SWIDTH 636 0
DWIDTH 18 0
BBX 12 23 2 -4
BITMAP
0100
0100
0100
0100
07E0
1FF0
3D10
7100
F100
E100
E100
E100
E100
E100
F100
7100
3910
1FF0
07E0
0100
0100
0100
0100
ENDCHAR
STARTCHAR sterling
ENCODING 163
SWIDTH 636 0
DWIDTH 18 0
BBX 14 20 2 0
BITMAP
03F8
07FC
0F04
1E00
1C00
1C00
1C00
1C00
1C00
1C00
FFE0
FFE0
1C00
1C00
1C00
1C00
1C00
1C00
FFFC
FFFC
ENDCHAR
STARTCHAR currency
ENCODING 164
SWIDTH 636 0
DWIDTH 18 0
BBX 16 16 1 1
BITMAP
4002
E007
77EE
3FFC
1C38
381C
300C
300C
300C
300C
381C
1C38
3FFC
77EE
E007
4002
ENDCHAR
STARTCHAR yen
ENCODING 165
SWIDTH 636 0
DWIDTH 18 0
BBX 15 20 2 0
BITMAP
F01E
701C
783C
3838
3C78
1C70
0EE0
FEFE
FFFE
07C0
0380
0380
FFFE
FFFE
0380
0380
0380
0380
0380
0380
ENDCHAR
STARTCHAR brokenbar
ENCODING 166
SWIDTH 336 0
DWIDTH 9 0
BBX 2 24 4 -5
BITMAP
C0
C0
C0
C0
C0
C0
C0
C0
C0
C0
00
00
00
00
C0
C0
C0
C0
C0
C0
C0
C0
C0
C0
ENDCHAR
STARTCHAR section
ENCODING 167
SWIDTH 500 0
DWIDTH 14 0
BBX 11 23 1 -3
BITMAP
1F80
3FC0
7840
7000
7000
3800
1C00
3E00
7780
E3C0
E1E0
E0E0
F0E0
78E0
1DC0
0F00
0380
01C0
01C0
01C0
43C0
7F80
3F00
ENDCHAR
STARTCHAR dieresis
ENCODING 168
SWIDTH 500 0
DWIDTH 14 0
BBX 9 3 3 18
BITMAP
E380
E380
E380
ENDCHAR
STARTCHAR copyright
ENCODING 169
SWIDTH 1000 0
DWIDTH 28 0
BBX 20 20 4 0
BITMAP
01F800
060600
180180
3000C0
21F840
430420
460020
8C0010
8C0010
8C0010
8C0010
8C0010
8C0010
460020
430420
21F840
3000C0
180180
060600
01F800
ENDCHAR
STARTCHAR ordfeminine
ENCODING 170
SWIDTH 471 0
DWIDTH 13 0
BBX 11 14 2 6
BITMAP
3F00
7FC0
40E0
0060
3FE0
7FE0
E060
C060
E1E0
7F60
3E60
0000
FFE0
FFE0
ENDCHAR
STARTCHAR guillemotleft
ENCODING 171
SWIDTH 611 0
DWIDTH 17 0
BBX 12 13 2 1
BITMAP
0410
0C30
1C70
38E0
71C0
E380
C300
E380
71C0
38E0
1C70
0C30
0410
ENDCHAR
STARTCHAR logicalnot
ENCODING 172
SWIDTH 837 0
DWIDTH 23 0
BBX 18 8 3 4
BITMAP
FFFFC0
FFFFC0
0000C0
0000C0
0000C0
0000C0
0000C0
0000C0
ENDCHAR
STARTCHAR sfthyphen
ENCODING 173
SWIDTH 360 0
DWIDTH 10 0
BBX 7 2 1 7
BITMAP
FE
FE
ENDCHAR
STARTCHAR registered
ENCODING 174
SWIDTH 1000 0
DWIDTH 28 0
BBX 20 20 4 0
BITMAP
01F800
060600
180180
3000C0
23F840
430C20
430620
830610
830610
830C10
83F810
831810
830C10
430E20
430620
230740
3000C0
180180
060600
01F800
ENDCHAR
STARTCHAR macron
ENCODING 175
SWIDTH 500 0
DWIDTH 14 0
BBX 8 2 3 19
BITMAP
FF
FF
ENDCHAR
STARTCHAR degree
ENCODING 176
SWIDTH 500 0
DWIDTH 14 0
BBX 9 9 3 11
BITMAP
3E00
7F00
E380
C180
C180
C180
E380
7F00
3E00
ENDCHAR
STARTCHAR plusminus
ENCODING 177
SWIDTH 837 0
DWIDTH 23 0
BBX 18 17 3 0
BITMAP
00C000
00C000
00C000
00C000
00C000
FFFFC0
FFFFC0
00C000
00C000
00C000
00C000
00C000
000000
000000
000000
FFFFC0
FFFFC0
ENDCHAR
STARTCHAR twosuperior
ENCODING 178
SWIDTH 400 0
DWIDTH 11 0
BBX 8 11 1 9
BITMAP
7C
FF
87
03
02
06
1C
38
70
FF
FF
ENDCHAR
STARTCHAR threesuperior
ENCODING 179
SWIDTH 400 0
DWIDTH 11 0
BBX 8 11 1 9
BITMAP
7C
FF
83
03
3E
3E
07
03
87
FE
7C
ENDCHAR
STARTCHAR acute
ENCODING 180
SWIDTH 500 0
DWIDTH 14 0
BBX 7 5 5 17
BITMAP
0E
1C
38
70
E0
ENDCHAR
STARTCHAR mu
ENCODING 181
SWIDTH 636 0
DWIDTH 18 0
BBX 15 21 3 -6
BITMAP
E038
E038
E038
E038
E038
E038
E038
E038
E038
E038
E038
E078
F0F8
FFFE
EF9E
E000
E000
E000
E000
E000
E000
ENDCHAR
STARTCHAR paragraph
ENCODING 182
SWIDTH 636 0
DWIDTH 18 0
BBX 13 23 2 -3
BITMAP
0FF8
3FF8
7F18
FF18
FF18
FF18
FF18
FF18
7F18
7F18
3F18
0718
0318
0318
0318
0318
0318
0318
0318
0318
0318
0318
0318
ENDCHAR
STARTCHAR periodcentered
ENCODING 183
SWIDTH 317 0
DWIDTH 9 0
BBX 3 3 3 8
BITMAP
E0
E0
E0
ENDCHAR
STARTCHAR cedilla
ENCODING 184
SWIDTH 500 0
DWIDTH 14 0
BBX 6 5 4 -5
BITMAP
18
0C
0C
FC
F8
ENDCHAR
STARTCHAR onesuperior
ENCODING 185
SWIDTH 400 0
DWIDTH 11 0
BBX 8 11 2 9
BITMAP
38
F8
D8
18
18
18
18
18
18
FF
FF
ENDCHAR
STARTCHAR ordmasculine
ENCODING 186
SWIDTH 471 0
DWIDTH 13 0
BBX 11 14 1 6
BITMAP
1F00
7FC0
71C0
E0E0
C060
C060
C060
E0E0
71C0
7FC0
1F00
0000
7FC0
7FC0
ENDCHAR
STARTCHAR guillemotright
ENCODING 187
SWIDTH 611 0
DWIDTH 17 0
BBX 12 13 3 1
BITMAP
8200
C300
E380
71C0
38E0
1C70
0C30
1C70
38E0
71C0
E380
C300
8200
ENDCHAR
STARTCHAR onequarter
ENCODING 188
SWIDTH 969 0
DWIDTH 27 0
BBX 25 20 2 0
BITMAP
3800E000
F800C000
D8018000
18038000
18030000
18070000
18060000
180C0000
181C0000
FF180E00
FF301E00
00701600
00602600
00C06600
01C0C600
01808600
0381FF80
0301FF80
06000600
0E000600
ENDCHAR
STARTCHAR onehalf
ENCODING 189
SWIDTH 969 0
DWIDTH 27 0
BBX 23 20 2 0
BITMAP
3800E0
F800C0
D80180
180380
180300
180700
180600
180C00
181C00
FF18F8
FF31FE
00710E
006006
00C004
01C00C
018038
038070
0300E0
0601FE
0E01FE
ENDCHAR
STARTCHAR threequarters
ENCODING 190
SWIDTH 969 0
DWIDTH 27 0
BBX 26 20 1 0
BITMAP
7C007000
FF006000
8300C000
0301C000
3E018000
3E038000
07030000
03060000
870E0000
FE0C0700
7C180F00
00380B00
00301300
00603300
00E06300
00C04300
01C0FFC0
0180FFC0
03000300
07000300
ENDCHAR
STARTCHAR questiondown
ENCODING 191
SWIDTH 530 0
DWIDTH 15 0
BBX 11 20 2 0
BITMAP
0700
0700
0700
0000
0000
0700
0700
0700
0700
0E00
1E00
3C00
7800
F000
E000
E000
E020
70E0
7FC0
1F00
ENDCHAR
STARTCHAR Agrave
ENCODING 192
SWIDTH 684 0
DWIDTH 19 0
BBX 19 26 0 0
BITMAP
01C000
00E000
006000
003000
000000
000000
00E000
01F000
01F000
01F000
03B800
03B800
07BC00
071C00
071C00
0E0E00
0E0E00
1E0F00
1FFF00
1FFF00
380380
380380
7803C0
7001C0
7001C0
E000E0
ENDCHAR
STARTCHAR Aacute
ENCODING 193
SWIDTH 684 0
DWIDTH 19 0
BBX 19 26 0 0
BITMAP
003800
003000
006000
00C000
000000
000000
00E000
01F000
01F000
01F000
03B800
03B800
07BC00
071C00
071C00
0E0E00
0E0E00
1E0F00
1FFF00
1FFF00
380380
380380
7803C0
7001C0
7001C0
E000E0
ENDCHAR
STARTCHAR Acircumflex
ENCODING 194
SWIDTH 684 0
DWIDTH 19 0
BBX 19 26 0 0
BITMAP
00F000
00F000
019800
030C00
000000
000000
00E000
01F000
01F000
01F000
03B800
03B800
07BC00
071C00
071C00
0E0E00
0E0E00
1E0F00
1FFF00
1FFF00
380380
380380
7803C0
7001C0
7001C0
E000E0
ENDCHAR
STARTCHAR Atilde
ENCODING 195
SWIDTH 684 0
DWIDTH 19 0
BBX 19 26 0 0
BITMAP
03CC00
07FC00
067800
000000
000000
000000
00E000
01F000
01F000
01F000
03B800
03B800
07BC00
071C00
071C00
0E0E00
0E0E00
1E0F00
1FFF00
1FFF00
380380
380380
7803C0
7001C0
7001C0
E000E0
ENDCHAR
STARTCHAR Adieresis
ENCODING 196
SWIDTH 684 0
DWIDTH 19 0
BBX 19 26 0 0
BITMAP
038E00
038E00
038E00
000000
000000
000000
00E000
01F000
01F000
01F000
03B800
03B800
07BC00
071C00
071C00
0E0E00
0E0E00
1E0F00
1FFF00
1FFF00
380380
380380
7803C0
7001C0
7001C0
E000E0
ENDCHAR
STARTCHAR Aring
ENCODING 197
SWIDTH 684 0
DWIDTH 19 0
BBX 19 26 0 0
BITMAP
00E000
01F000
03B800
031800
031800
03B800
01F000
00E000
01F000
01F000
01F000
03B800
03B800
07BC00
071C00
0F1E00
0E0E00
0E0E00
1FFF00
1FFF00
3C0780
380380
7803C0
7001C0
7001C0
E000E0
ENDCHAR
STARTCHAR AE
ENCODING 198
SWIDTH 974 0
DWIDTH 27 0
BBX 25 20 0 0
BITMAP
00FFFF80
00FFFF80
01EE0000
01CE0000
03CE0000
038E0000
038E0000
078E0000
070FFF00
0F0FFF00
0E0E0000
0E0E0000
1FFE0000
1FFE0000
3C0E0000
380E0000
780E0000
700E0000
700FFF80
E00FFF80
ENDCHAR
STARTCHAR Ccedilla
ENCODING 199
SWIDTH 698 0
DWIDTH 20 0
BBX 16 25 2 -5
BITMAP
03F8
0FFE
1E07
3803
7000
7000
E000
E000
E000
E000
E000
E000
E000
E000
7000
7000
3803
1E07
0FFE
03F8
0060
0030
0030
03F0
03E0
ENDCHAR
STARTCHAR Egrave
ENCODING 200
SWIDTH 631 0
DWIDTH 18 0
BBX 13 26 3 0
BITMAP
1C00
0E00
0600
0300
0000
0000
FFF8
FFF8
E000
E000
E000
E000
E000
E000
FFF0
FFF0
E000
E000
E000
E000
E000
E000
E000
E000
FFF8
FFF8
ENDCHAR
STARTCHAR Eacute
ENCODING 201
SWIDTH 631 0
DWIDTH 18 0
BBX 13 26 3 0
BITMAP
0380
0300
0600
0C00
0000
0000
FFF8
FFF8
E000
E000
E000
E000
E000
E000
FFF0
FFF0
E000
E000
E000
E000
E000
E000
E000
E000
FFF8
FFF8
ENDCHAR
STARTCHAR Ecircumflex
ENCODING 202
SWIDTH 631 0
DWIDTH 18 0
BBX 13 26 3 0
BITMAP
0F00
0F00
1980
30C0
0000
0000
FFF8
FFF8
E000
E000
E000
E000
E000
E000
FFF0
FFF0
E000
E000
E000
E000
E000
E000
E000
E000
FFF8
FFF8
ENDCHAR
STARTCHAR Edieresis
ENCODING 203
SWIDTH 631 0
DWIDTH 18 0
BBX 13 26 3 0
BITMAP
38E0
38E0
38E0
0000
0000
0000
FFF8
FFF8
E000
E000
E000
E000
E000
E000
FFF0
FFF0
E000
E000
E000
E000
E000
E000
E000
E000
FFF8
FFF8
ENDCHAR
STARTCHAR Igrave
ENCODING 204
SWIDTH 294 0
DWIDTH 8 0
BBX 5 26 1 0
BITMAP
E0
70
30
18
00
00
38
38
38
38
38
38
38
38
38
38
38
38
38
38
38
38
38
38
38
38
ENDCHAR
STARTCHAR Iacute
ENCODING 205
SWIDTH 294 0
DWIDTH 8 0
BBX 5 26 2 0
BITMAP
38
30
60
C0
00
00
70
70
70
70
70
70
70
70
70
70
70
70
70
70
70
70
70
70
70
70
ENDCHAR
STARTCHAR Icircumflex
ENCODING 206
SWIDTH 294 0
DWIDTH 8 0
BBX 8 26 0 0
BITMAP
3C
3C
66
C3
00
00
1C
1C
1C
1C
1C
1C
1C
1C
1C
1C
1C
1C
1C
1C
1C
1C
1C
1C
1C
1C
ENDCHAR
STARTCHAR Idieresis
ENCODING 207
SWIDTH 294 0
DWIDTH 8 0
BBX 9 26 0 0
BITMAP
E380
E380
E380
0000
0000
0000
1C00
1C00
1C00
1C00
1C00
1C00
1C00
1C00
1C00
1C00
1C00
1C00
1C00
1C00
1C00
1C00
1C00
1C00
1C00
1C00
ENDCHAR
STARTCHAR Eth
ENCODING 208
SWIDTH 774 0
DWIDTH 22 0
BBX 20 20 0 0
BITMAP
1FFC00
1FFF00
1C0780
1C01C0
1C00E0
1C00E0
1C0070
1C0070
FFE070
FFE070
1C0070
1C0070
1C0070
1C0070
1C00E0
1C00E0
1C01C0
1C0780
1FFF00
1FF800
ENDCHAR
STARTCHAR Ntilde
ENCODING 209
SWIDTH 748 0
DWIDTH 21 0
BBX 15 26 3 0
BITMAP
1E60
3FE0
33C0
0000
0000
0000
F00E
F80E
F80E
FC0E
FC0E
FE0E
EE0E
EF0E
E78E
E38E
E3CE
E1CE
E1EE
E0EE
E0FE
E07E
E07E
E03E
E03E
E01E
ENDCHAR
STARTCHAR Ograve
ENCODING 210
SWIDTH 787 0
DWIDTH 22 0
BBX 19 26 2 0
BITMAP
038000
01C000
00C000
006000
000000
000000
03F800
0FFE00
1E0F00
380380
7803C0
7001C0
F001E0
E000E0
E000E0
E000E0
E000E0
E000E0
E000E0
E001E0
7001C0
7001C0
380380
1E0F00
0FFE00
03F800
ENDCHAR
STARTCHAR Oacute
ENCODING 211
SWIDTH 787 0
DWIDTH 22 0
BBX 19 26 2 0
BITMAP
007000
006000
00C000
018000
000000
000000
03F800
0FFE00
1E0F00
380380
7803C0
7001C0
F001E0
E000E0
E000E0
E000E0
E000E0
E000E0
E000E0
E001E0
7001C0
7001C0
380380
1E0F00
0FFE00
03F800
ENDCHAR
STARTCHAR Ocircumflex
ENCODING 212
SWIDTH 787 0
DWIDTH 22 0
BBX 19 26 2 0
BITMAP
01E000
01E000
033000
061800
000000
000000
03F800
0FFE00
1E0F00
380380
7803C0
7001C0
F001E0
E000E0
E000E0
E000E0
E000E0
E000E0
E000E0
E001E0
7001C0
7001C0
380380
1E0F00
0FFE00
03F800
ENDCHAR
STARTCHAR Otilde
ENCODING 213
SWIDTH 787 0
DWIDTH 22 0
BBX 19 26 2 0
BITMAP
079800
0FF800
0CF000
000000
000000
000000
03F800
0FFE00
1E0F00
380380
7803C0
7001C0
F001E0
E000E0
E000E0
E000E0
E000E0
E000E0
E000E0
E001E0
7001C0
7001C0
380380
1E0F00
0FFE00
03F800
ENDCHAR
STARTCHAR Odieresis
ENCODING 214
SWIDTH 787 0
DWIDTH 22 0
BBX 19 26 2 0
BITMAP
071C00
071C00
071C00
000000
000000
000000
03F800
0FFE00
1E0F00
380380
7803C0
7001C0
F001E0
E000E0
E000E0
E000E0
E000E0
E000E0
E000E0
E001E0
7001C0
7001C0
380380
1E0F00
0FFE00
03F800
ENDCHAR
STARTCHAR multiply
ENCODING 215
SWIDTH 837 0
DWIDTH 23 0
BBX 16 16 4 1
BITMAP
4002
E007
700E
381C
1C38
0E70
07E0
03C0
03C0
07E0
0E70
1C38
381C
700E
E007
4002
ENDCHAR
STARTCHAR Oslash
ENCODING 216
SWIDTH 787 0
DWIDTH 22 0
BBX 19 20 2 0
BITMAP
03F860
0FFEC0
1E0F80
380380
7807C0
700FC0
F01DE0
E038E0
E030E0
E060E0
E0C0E0
E180E0
E380E0
E701E0
7E01C0
7C01C0
380380
3E0F00
6FFE00
C3F800
ENDCHAR
STARTCHAR Ugrave
ENCODING 217
SWIDTH 731 0
DWIDTH 21 0
BBX 16 26 3 0
BITMAP
0E00
0700
0300
0180
0000
0000
E007
E007
E007
E007
E007
E007
E007
E007
E007
E007
E007
E007
E007
E007
E007
F00F
700E
781E
3FF8
0FF0
ENDCHAR
STARTCHAR Uacute
ENCODING 218
SWIDTH 731 0
DWIDTH 21 0
BBX 16 26 3 0
BITMAP
01C0
0180
0300
0600
0000
0000
E007
E007
E007
E007
E007
E007
E007
E007
E007
E007
E007
E007
E007
E007
E007
F00F
700E
781E
3FF8
0FF0
ENDCHAR
STARTCHAR Ucircumflex
ENCODING 219
SWIDTH 731 0
DWIDTH 21 0
BBX 16 26 3 0
BITMAP
0780
0780
0CC0
1860
0000
0000
E007
E007
E007
E007
E007
E007
E007
E007
E007
E007
E007
E007
E007
E007
E007
F00F
700E
781E
3FF8
0FF0
ENDCHAR
STARTCHAR Udieresis
ENCODING 220
SWIDTH 731 0
DWIDTH 21 0
BBX 16 26 3 0
BITMAP
1C70
1C70
1C70
0000
0000
0000
E007
E007
E007
E007
E007
E007
E007
E007
E007
E007
E007
E007
E007
E007
E007
F00F
700E
781E
3FF8
0FF0
ENDCHAR
STARTCHAR Yacute
ENCODING 221
SWIDTH 610 0
DWIDTH 17 0
BBX 17 26 0 0
BITMAP
007000
006000
00C000
018000
000000
000000
F00780
780F00
380E00
3C1E00
1E3C00
0E3800
0F7800
07F000
03E000
03E000
01C000
01C000
01C000
01C000
01C000
01C000
01C000
01C000
01C000
01C000
ENDCHAR
STARTCHAR Thorn
ENCODING 222
SWIDTH 604 0
DWIDTH 17 0
BBX 13 20 3 0
BITMAP
E000
E000
E000
E000
FF80
FFE0
E0F0
E078
E038
E038
E038
E038
E078
E0F0
FFE0
FF80
E000
E000
E000
E000
ENDCHAR
STARTCHAR germandbls
ENCODING 223
SWIDTH 629 0
DWIDTH 18 0
BBX 14 21 3 0
BITMAP
1F80
3FC0
70E0
E070
E070
E1F0
E3C0
E700
E700
E700
E700
E3C0
E1E0
E078
E03C
E01C
E01C
E01C
E43C
E7F8
E3E0
ENDCHAR
STARTCHAR agrave
ENCODING 224
SWIDTH 612 0
DWIDTH 17 0
BBX 13 22 2 0
BITMAP
7000
3800
1C00
0E00
0700
0000
0000
1FC0
7FE0
40F0
0038
0038
1FF8
7FF8
7038
E038
E038
E078
E078
F0F8
7FB8
1F38
ENDCHAR
STARTCHAR aacute
ENCODING 225
SWIDTH 612 0
DWIDTH 17 0
BBX 13 22 2 0
BITMAP
00E0
01C0
0380
0700
0E00
0000
0000
1FC0
7FE0
40F0
0038
0038
1FF8
7FF8
7038
E038
E038
E078
E078
F0F8
7FB8
1F38
ENDCHAR
STARTCHAR acircumflex
ENCODING 226
SWIDTH 612 0
DWIDTH 17 0
BBX 13 22 2 0
BITMAP
0700
0F80
0D80
18C0
3060
0000
0000
1FC0
7FE0
40F0
0038
0038
1FF8
7FF8
7038
E038
E038
E078
E078
F0F8
7FB8
1F38
ENDCHAR
STARTCHAR atilde
ENCODING 227
SWIDTH 612 0
DWIDTH 17 0
BBX 13 22 2 0
BITMAP
38C0
7CC0
67C0
6380
0000
0000
0000
1FC0
7FE0
40F0
0038
0038
1FF8
7FF8
7038
E038
E038
E078
E078
F0F8
7FB8
1F38
ENDCHAR
STARTCHAR adieresis
ENCODING 228
SWIDTH 612 0
DWIDTH 17 0
BBX 13 21 2 0
BITMAP
38E0
38E0
38E0
0000
0000
0000
1FC0
7FE0
40F0
0038
0038
1FF8
7FF8
7038
E038
E038
E078
E078
F0F8
7FB8
1F38
ENDCHAR
STARTCHAR aring
ENCODING 229
SWIDTH 612 0
DWIDTH 17 0
BBX 13 25 2 0
BITMAP
0F00
1F80
39C0
30C0
30C0
39C0
1F80
0F00
0000
0000
1FC0
7FE0
40F0
0038
0038
1FF8
7FF8
7038
E038
E038
E078
E078
F0F8
7FB8
1F38
ENDCHAR
STARTCHAR ae
ENCODING 230
SWIDTH 981 0
DWIDTH 28 0
BBX 24 15 2 0
BITMAP
1F81F0
7FE7FC
40FE1E
003C0E
003C07
1FF807
7FFFFF
703FFF
E03800
E03800
E03800
E07C00
F0EE06
7FC7FE
1F03F8
ENDCHAR
STARTCHAR ccedilla
ENCODING 231
SWIDTH 549 0
DWIDTH 15 0
BBX 12 20 2 -5
BITMAP
0FE0
1FF0
3C10
7000
F000
E000
E000
E000
E000
E000
F000
7000
3C10
1FF0
0FE0
0180
00C0
00C0
0FC0
0F80
ENDCHAR
STARTCHAR egrave
ENCODING 232
SWIDTH 615 0
DWIDTH 17 0
BBX 14 22 2 0
BITMAP
3800
1C00
0E00
0700
0380
0000
0000
0FC0
1FF0
3878
7038
F01C
E01C
FFFC
FFFC
E000
E000
E000
7000
3808
1FF8
0FE0
ENDCHAR
STARTCHAR eacute
ENCODING 233
SWIDTH 615 0
DWIDTH 17 0
BBX 14 22 2 0
BITMAP
0070
00E0
01C0
0380
0700
0000
0000
0FC0
1FF0
3878
7038
F01C
E01C
FFFC
FFFC
E000
E000
E000
7000
3808
1FF8
0FE0
ENDCHAR
STARTCHAR ecircumflex
ENCODING 234
SWIDTH 615 0
DWIDTH 17 0
BBX 14 22 2 0
BITMAP
0380
07C0
06C0
0C60
1830
0000
0000
0FC0
1FF0
3878
7038
F01C
E01C
FFFC
FFFC
E000
E000
E000
7000
3808
1FF8
0FE0
ENDCHAR
STARTCHAR edieresis
ENCODING 235
SWIDTH 615 0
DWIDTH 17 0
BBX 14 21 2 0
BITMAP
1C70
1C70
1C70
0000
0000
0000
0FC0
1FF0
3878
7038
F01C
E01C
FFFC
FFFC
E000
E000
E000
7000
3808
1FF8
0FE0
ENDCHAR
STARTCHAR igrave
ENCODING 236
SWIDTH 277 0
DWIDTH 8 0
BBX 7 22 -1 0
BITMAP
E0
70
38
1C
0E
00
00
0E
0E
0E
0E
0E
0E
0E
0E
0E
0E
0E
0E
0E
0E
0E
ENDCHAR
STARTCHAR iacute
ENCODING 237
SWIDTH 277 0
DWIDTH 8 0
BBX 7 22 2 0
BITMAP
0E
1C
38
70
E0
00
00
70
70
70
70
70
70
70
70
70
70
70
70
70
70
70
ENDCHAR
STARTCHAR icircumflex
ENCODING 238
SWIDTH 277 0
DWIDTH 8 0
BBX 9 22 0 0
BITMAP
1C00
3E00
3600
6300
C180
0000
0000
1C00
1C00
1C00
1C00
1C00
1C00
1C00
1C00
1C00
1C00
1C00
1C00
1C00
1C00
1C00
ENDCHAR
STARTCHAR idieresis
ENCODING 239
SWIDTH 277 0
DWIDTH 8 0
BBX 9 21 0 0
BITMAP
E380
E380
E380
0000
0000
0000
1C00
1C00
1C00
1C00
1C00
1C00
1C00
1C00
1C00
1C00
1C00
1C00
1C00
1C00
1C00
ENDCHAR
STARTCHAR eth
ENCODING 240
SWIDTH 611 0
DWIDTH 17 0
BBX 14 21 2 0
BITMAP
1C00
0EF0
07C0
1F80
3180
00C0
0FE0
3FF0
7838
7038
F01C
E01C
E01C
E01C
E01C
E01C
F03C
7038
3870
1FE0
0FC0
ENDCHAR
STARTCHAR ntilde
ENCODING 241
SWIDTH 633 0
DWIDTH 18 0
BBX 13 22 3 0
BITMAP
38C0
7CC0
67C0
6380
0000
0000
0000
E3C0
EFF0
F870
F078
E038
E038
E038
E038
E038
E038
E038
E038
E038
E038
E038
ENDCHAR
STARTCHAR ograve
ENCODING 242
SWIDTH 611 0
DWIDTH 17 0
BBX 14 22 2 0
BITMAP
3800
1C00
0E00
0700
0380
0000
0000
0FC0
3FF0
7878
7038
F03C
E01C
E01C
E01C
E01C
E01C
F03C
7038
7878
3FF0
0FC0
ENDCHAR
STARTCHAR oacute
ENCODING 243
SWIDTH 611 0
DWIDTH 17 0
BBX 14 22 2 0
BITMAP
0070
00E0
01C0
0380
0700
0000
0000
0FC0
3FF0
7878
7038
F03C
E01C
E01C
E01C
E01C
E01C
F03C
7038
7878
3FF0
0FC0
ENDCHAR
STARTCHAR ocircumflex
ENCODING 244
SWIDTH 611 0
DWIDTH 17 0
BBX 14 22 2 0
BITMAP
0380
07C0
06C0
0C60
1830
0000
0000
0FC0
3FF0
7878
7038
F03C
E01C
E01C
E01C
E01C
E01C
F03C
7038
7878
3FF0
0FC0
ENDCHAR
STARTCHAR otilde
ENCODING 245
SWIDTH 611 0
DWIDTH 17 0
BBX 14 22 2 0
BITMAP
1C60
3E60
33E0
31C0
0000
0000
0000
0FC0
3FF0
7878
7038
F03C
E01C
E01C
E01C
E01C
E01C
F03C
7038
7878
3FF0
0FC0
ENDCHAR
STARTCHAR odieresis
ENCODING 246
SWIDTH 611 0
DWIDTH 17 0
BBX 14 21 2 0
BITMAP
1C70
1C70
1C70
0000
0000
0000
0FC0
3FF0
7878
7038
F03C
E01C
E01C
E01C
E01C
E01C
F03C
7038
7878
3FF0
0FC0
ENDCHAR
STARTCHAR divide
ENCODING 247
SWIDTH 837 0
DWIDTH 23 0
BBX 17 12 3 3
BITMAP
01C000
01C000
01C000
000000
000000
FFFF80
FFFF80
000000
000000
01C000
01C000
01C000
ENDCHAR
STARTCHAR oslash
ENCODING 248
SWIDTH 611 0
DWIDTH 17 0
BBX 14 17 2 -1
BITMAP
0004
0FCC
3FF8
7870
7078
F0D8
E0DC
E19C
E31C
E61C
EC1C
EC3C
7838
3878
7FF0
CFC0
8000
ENDCHAR
STARTCHAR ugrave
ENCODING 249
SWIDTH 633 0
DWIDTH 18 0
BBX 13 22 3 0
BITMAP
7000
3800
1C00
0E00
0700
0000
0000
E038
E038
E038
E038
E038
E038
E038
E038
E038
E038
E038
F078
70F8
7FB8
1E38
ENDCHAR
STARTCHAR uacute
ENCODING 250
SWIDTH 633 0
DWIDTH 18 0
BBX 13 22 3 0
BITMAP
00E0
01C0
0380
0700
0E00
0000
0000
E038
E038
E038
E038
E038
E038
E038
E038
E038
E038
E038
F078
70F8
7FB8
1E38
ENDCHAR
STARTCHAR ucircumflex
ENCODING 251
SWIDTH 633 0
DWIDTH 18 0
BBX 13 22 3 0
BITMAP
0700
0F80
0D80
18C0
3060
0000
0000
E038
E038
E038
E038
E038
E038
E038
E038
E038
E038
E038
F078
70F8
7FB8
1E38
ENDCHAR
STARTCHAR udieresis
ENCODING 252
SWIDTH 633 0
DWIDTH 18 0
BBX 13 21 3 0
BITMAP
38E0
38E0
38E0
0000
0000
0000
E038
E038
E038
E038
E038
E038
E038
E038
E038
E038
E038
F078
70F8
7FB8
1E38
ENDCHAR
STARTCHAR yacute
ENCODING 253
SWIDTH 591 0
DWIDTH 17 0
BBX 15 28 1 -6
BITMAP
0070
00E0
01C0
0380
0700
0000
0000
E00E
701C
701C
783C
3838
3878
1C70
1C70
1EE0
0EE0
0FE0
07C0
07C0
0780
0380
0780
0700
0F00
0E00
7E00
7800
ENDCHAR
STARTCHAR thorn
ENCODING 254
SWIDTH 634 0
DWIDTH 18 0
BBX 14 27 3 -6
BITMAP
E000
E000
E000
E000
E000
E000
E7C0
EFF0
F878
F038
F03C
E01C
E01C
E01C
E01C
E01C
E03C
F038
F878
EFF0
E7C0
E000
E000
E000
E000
E000
E000
ENDCHAR
STARTCHAR ydieresis
ENCODING 255
SWIDTH 591 0
DWIDTH 17 0
BBX 15 27 1 -6
BITMAP
1C70
1C70
1C70
0000
0000
0000
E00E
701C
701C
783C
3838
3878
1C70
1C70
1EE0
0EE0
0FE0
07C0
07C0
0780
0380
0780
0700
0F00
0E00
7E00
7800
ENDCHAR
STARTCHAR .notdef
ENCODING -1
SWIDTH 600 0
DWIDTH 17 0
BBX 14 25 1 -5
BITMAP
FFFC
FFFC
C00C
C00C
C00C
C00C
C00C
C00C
C00C
C00C
C00C
C00C
C00C
C00C
C00C
C00C
C00C
C00C
C00C
C00C
C00C
C00C
C00C
FFFC
FFFC
ENDCHAR
STARTCHAR .null
ENCODING -1
SWIDTH 0 0
DWIDTH 0 0
BBX 1 1 0 0
BITMAP
00
ENDCHAR
STARTCHAR nonmarkingreturn
ENCODING -1
SWIDTH 317 0
DWIDTH 9 0
BBX 1 1 0 0
BITMAP
00
ENDCHAR
STARTCHAR dagger
ENCODING -1
SWIDTH 500 0
DWIDTH 14 0
BBX 13 23 1 -3
BITMAP
0700
0700
0700
0700
0700
0700
FFF8
FFF8
0700
0700
0700
0700
0700
0700
0700
0700
0700
0700
0700
0700
0700
0700
0700
ENDCHAR
STARTCHAR bullet
ENCODING -1
SWIDTH 589 0
DWIDTH 17 0
BBX 8 8 4 6
BITMAP
3C
7E
FF
FF
FF
FF
7E
3C
ENDCHAR
STARTCHAR trademark
ENCODING -1
SWIDTH 1000 0
DWIDTH 28 0
BBX 18 8 4 12
BITMAP
FF71C0
1871C0
186AC0
186AC0
1866C0
1864C0
1860C0
1860C0
ENDCHAR
STARTCHAR notequal
ENCODING -1
SWIDTH 837 0
DWIDTH 23 0
BBX 18 15 3 1
BITMAP
000200
000700
000E00
001C00
FFFFC0
FFFFC0
00E000
00C000
01C000
FFFFC0
FFFFC0
0E0000
1C0000
380000
100000
ENDCHAR
STARTCHAR infinity
ENCODING -1
SWIDTH 833 0
DWIDTH 23 0
BBX 17 11 3 3
BITMAP
3C1E00
7E3F00
437100
81E080
80C080
81C080
81C080
83C180
477300
7E3F00
3C1E00
ENDCHAR
STARTCHAR lessequal
ENCODING -1
SWIDTH 837 0
DWIDTH 23 0
BBX 18 16 3 0
BITMAP
0000C0
000FC0
007F00
07F800
7F8000
F80000
F80000
7F8000
07F800
007F00
000FC0
0000C0
000000
000000
FFFFC0
FFFFC0
ENDCHAR
STARTCHAR greaterequal
ENCODING -1
SWIDTH 837 0
DWIDTH 23 0
BBX 18 16 3 0
BITMAP
C00000
FC0000
3F8000
07F800
007F80
0007C0
0007C0
007F80
07F800
3F8000
FC0000
C00000
000000
000000
FFFFC0
FFFFC0
ENDCHAR
STARTCHAR partialdiff
ENCODING -1
SWIDTH 517 0
DWIDTH 14 0
BBX 12 18 1 0
BITMAP
0780
0FC0
1E60
0020
0030
0030
0030
1F30
38B0
7070
F070
E070
E060
E060
E0C0
60C0
7180
1E00
ENDCHAR
STARTCHAR summation
ENCODING -1
SWIDTH 673 0
DWIDTH 19 0
BBX 18 25 0 -5
BITMAP
FFFFC0
FFFFC0
FFFFC0
780000
3C0000
1E0000
0F0000
078000
03C000
01E000
00F000
007800
003C00
007800
00F000
01E000
03C000
078000
0F0000
1E0000
3C0000
780000
7FFFC0
FFFFC0
FFFFC0
ENDCHAR
STARTCHAR product
ENCODING -1
SWIDTH 756 0
DWIDTH 21 0
BBX 17 26 2 -6
BITMAP
FFFF80
FFFF80
E00380
E00380
E00380
E00380
E00380
E00380
E00380
E00380
E00380
E00380
E00380
E00380
E00380
E00380
E00380
E00380
E00380
E00380
E00380
E00380
E00380
E00380
E00380
E00380
ENDCHAR
STARTCHAR pi
ENCODING -1
SWIDTH 588 0
DWIDTH 16 0
BBX 17 15 0 0
BITMAP
3FFF80
7FFF80
CC1C00
CC1C00
1C1800
1C3800
1C3800
183800
183800
387000
387000
387000
307000
307E00
703E00
ENDCHAR
STARTCHAR integral
ENCODING -1
SWIDTH 520 0
DWIDTH 15 0
BBX 13 26 1 -5
BITMAP
0070
01B8
01B8
0380
0300
0300
0300
0700
0700
0700
0700
0700
0700
0700
0700
0700
0700
0700
0700
0600
0600
0600
0E00
EC00
EC00
7800
ENDCHAR
STARTCHAR Omega
ENCODING -1
SWIDTH 764 0
DWIDTH 21 0
BBX 19 20 1 0
BITMAP
03F800
0FFE00
1E0F00
380380
7001C0
7001C0
E000E0
E000E0
E000E0
E000E0
E000E0
E000E0
E001E0
7001C0
7001C0
380380
1C0700
0E0E00
FF1FE0
FF1FE0
ENDCHAR
STARTCHAR radical
ENCODING -1
SWIDTH 637 0
DWIDTH 18 0
BBX 17 23 1 0
BITMAP
000380
000200
000600
000600
000400
000C00
000800
000800
001800
101000
F01000
B83000
182000
186000
1C4000
0C4000
0CC000
0E8000
068000
078000
070000
030000
030000
ENDCHAR
STARTCHAR florin
ENCODING -1
SWIDTH 636 0
DWIDTH 18 0
BBX 17 27 0 -6
BITMAP
000F00
001F80
003880
007000
007000
007000
007000
006000
00E000
0FFE00
0FFE00
00C000
01C000
01C000
01C000
01C000
01C000
018000
038000
038000
038000
038000
070000
070000
8F0000
FE0000
780000
ENDCHAR
STARTCHAR approxequal
ENCODING -1
SWIDTH 837 0
DWIDTH 23 0
BBX 18 9 3 4
BITMAP
1F0040
7FE1C0
E1FF80
803E00
000000
1F0040
7FE1C0
E1FF80
803E00
ENDCHAR
STARTCHAR Delta
ENCODING -1
SWIDTH 668 0
DWIDTH 19 0
BBX 19 20 0 0
BITMAP
00E000
01F000
01F000
01B000
03B800
033800
071C00
071C00
060C00
0E0E00
0E0E00
1C0700
1C0700
180700
380380
380380
7001C0
7001C0
7FFFC0
FFFFE0
ENDCHAR
STARTCHAR ellipsis
ENCODING -1
SWIDTH 1000 0
DWIDTH 28 0
BBX 21 3 3 0
BITMAP
E07038
E07038
E07038
ENDCHAR
STARTCHAR OE
ENCODING -1
SWIDTH 1069 0
DWIDTH 30 0
BBX 27 20 2 0
BITMAP
00FFFFE0
07FFFFE0
1F038000
3C038000
78038000
70038000
F0038000
E0038000
E003FFC0
E003FFC0
E0038000
E0038000
E0038000
F0038000
70038000
78038000
3C038000
1F038000
07FFFFE0
00FFFFE0
ENDCHAR
STARTCHAR oe
ENCODING -1
SWIDTH 1022 0
DWIDTH 29 0
BBX 25 15 2 0
BITMAP
0FC0F800
3FE3FE00
78770F00
703E0700
F03E0380
E01C0380
E01FFF80
E01FFF80
E01C0000
E01C0000
F03C0000
703E0000
78770100
3FE3FF00
0FC0FE00
ENDCHAR
STARTCHAR endash
ENCODING -1
SWIDTH 500 0
DWIDTH 14 0
BBX 14 2 0 7
BITMAP
FFFC
FFFC
ENDCHAR
STARTCHAR emdash
ENCODING -1
SWIDTH 1000 0
DWIDTH 28 0
BBX 28 2 0 7
BITMAP
FFFFFFF0
FFFFFFF0
ENDCHAR
STARTCHAR quotedblleft
ENCODING -1
SWIDTH 518 0
DWIDTH 15 0
BBX 10 7 2 13
BITMAP
30C0
71C0
6180
E380
E380
E380
E380
ENDCHAR
STARTCHAR quotedblright
ENCODING -1
SWIDTH 518 0
DWIDTH 15 0
BBX 10 7 3 13
BITMAP
71C0
71C0
71C0
71C0
6180
E380
C300
ENDCHAR
STARTCHAR quoteleft
ENCODING -1
SWIDTH 317 0
DWIDTH 9 0
BBX 4 7 2 13
BITMAP
30
70
60
E0
E0
E0
E0
ENDCHAR
STARTCHAR quoteright
ENCODING -1
SWIDTH 317 0
DWIDTH 9 0
BBX 4 7 3 13
BITMAP
70
70
70
60
60
E0
C0
ENDCHAR
STARTCHAR lozenge
ENCODING -1
SWIDTH 494 0
DWIDTH 14 0
BBX 14 27 0 -6
BITMAP
0300
0300
0780
0480
0CC0
0840
1860
1020
3030
2010
6018
4008
C00C
C00C
400C
6018
6018
3030
3030
1860
1860
0CC0
0CC0
0780
0780
0300
0300
ENDCHAR
STARTCHAR Ydieresis
ENCODING -1
SWIDTH 610 0
DWIDTH 17 0
BBX 17 26 0 0
BITMAP
071C00
071C00
071C00
000000
000000
000000
F00780
780F00
380E00
3C1E00
1E3C00
0E3800
0F7800
07F000
03E000
03E000
01C000
01C000
01C000
01C000
01C000
01C000
01C000
01C000
01C000
01C000
ENDCHAR
STARTCHAR fraction
ENCODING -1
SWIDTH 166 0
DWIDTH 5 0
BBX 15 20 -5 0
BITMAP
000E
000C
0018
0038
0030
0070
0060
00C0
01C0
0180
0300
0700
0600
0C00
1C00
1800
3800
3000
6000
E000
ENDCHAR
STARTCHAR guilsinglleft
ENCODING -1
SWIDTH 399 0
DWIDTH 11 0
BBX 6 13 2 1
BITMAP
04
0C
1C
38
70
E0
C0
E0
70
38
1C
0C
04
ENDCHAR
STARTCHAR guilsinglright
ENCODING -1
SWIDTH 399 0
DWIDTH 11 0
BBX 6 13 3 1
BITMAP
80
C0
E0
70
38
1C
0C
1C
38
70
E0
C0
80
ENDCHAR
STARTCHAR fi
ENCODING -1
SWIDTH 629 0
DWIDTH 18 0
BBX 14 21 1 0
BITMAP
0FDC
1FDC
3C1C
3800
3800
3800
FFFC
FFFC
381C
381C
381C
381C
381C
381C
381C
381C
381C
381C
381C
381C
381C
ENDCHAR
STARTCHAR fl
ENCODING -1
SWIDTH 629 0
DWIDTH 18 0
BBX 14 21 1 0
BITMAP
0FFC
1FFC
3C1C
381C
381C
381C
FF9C
FF9C
381C
381C
381C
381C
381C
381C
381C
381C
381C
381C
381C
381C
381C
ENDCHAR
STARTCHAR daggerdbl
ENCODING -1
SWIDTH 500 0
DWIDTH 14 0
BBX 13 23 1 -3
BITMAP
0700
0700
0700
0700
0700
0700
FFF8
FFF8
0700
0700
0700
0700
0700
0700
0700
FFF8
FFF8
0700
0700
0700
0700
0700
0700
ENDCHAR
STARTCHAR quotesinglbase
ENCODING -1
SWIDTH 317 0
DWIDTH 9 0
BBX 4 7 3 -4
BITMAP
70
70
70
70
60
E0
C0
ENDCHAR
STARTCHAR quotedblbase
ENCODING -1
SWIDTH 518 0
DWIDTH 15 0
BBX 10 7 3 -4
BITMAP
71C0
71C0
71C0
71C0
6180
E380
C300
ENDCHAR
STARTCHAR perthousand
ENCODING -1
SWIDTH 1341 0
DWIDTH 38 0
BBX 35 20 2 0
BITMAP
3E00700000
7F00600000
6300C00000
C181C00000
C183800000
C183000000
C187000000
C18E000000
630C000000
7F1C7C0F80
3E38FE1FC0
0030C618C0
0071833060
00E1833060
00C1833060
01C1833060
0381833060
0300C618C0
0700FE1FC0
0E007C0F80
ENDCHAR
STARTCHAR dotlessi
ENCODING -1
SWIDTH 277 0
DWIDTH 8 0
BBX 3 15 3 0
BITMAP
E0
E0
E0
E0
E0
E0
E0
E0
E0
E0
E0
E0
E0
E0
E0
ENDCHAR
STARTCHAR circumflex
ENCODING -1
SWIDTH 500 0
DWIDTH 14 0
BBX 9 5 3 17
BITMAP
1C00
3E00
3600
6300
C180
ENDCHAR
STARTCHAR tilde
ENCODING -1
SWIDTH 500 0
DWIDTH 14 0
BBX 9 4 2 18
BITMAP
7180
F980
CF80
C700
ENDCHAR
STARTCHAR breve
ENCODING -1
SWIDTH 500 0
DWIDTH 14 0
BBX 9 4 3 18
BITMAP
C180
E380
7F00
3E00
ENDCHAR
STARTCHAR dotaccent
ENCODING -1
SWIDTH 500 0
DWIDTH 14 0
BBX 3 3 6 18
BITMAP
E0
E0
E0
ENDCHAR
STARTCHAR ring
ENCODING -1
SWIDTH 500 0
DWIDTH 14 0
BBX 8 8 3 17
BITMAP
3C
7E
E7
C3
C3
E7
7E
3C
ENDCHAR
STARTCHAR hungarumlaut
ENCODING -1
SWIDTH 500 0
DWIDTH 14 0
BBX 9 5 3 17
BITMAP
3980
3300
6600
6600
CC00
ENDCHAR
STARTCHAR ogonek
ENCODING -1
SWIDTH 500 0
DWIDTH 14 0
BBX 5 5 5 -5
BITMAP
60
C0
C0
F8
78
ENDCHAR
STARTCHAR caron
ENCODING -1
SWIDTH 500 0
DWIDTH 14 0
BBX 9 5 3 17
BITMAP
C180
6300
3600
3E00
1C00
ENDCHAR
STARTCHAR Lslash
ENCODING -1
SWIDTH 562 0
DWIDTH 16 0
BBX 16 20 0 0
BITMAP
1C00
1C00
1C00
1C00
1C00
1C00
1CE0
1DC0
1F80
1F00
1C00
7C00
FC00
5C00
1C00
1C00
1C00
1C00
1FFF
1FFF
ENDCHAR
STARTCHAR lslash
ENCODING -1
SWIDTH 284 0
DWIDTH 8 0
BBX 9 21 0 0
BITMAP
1C00
1C00
1C00
1C00
1C00
1C00
1C00
1D00
1F80
1E00
3C00
FC00
5C00
1C00
1C00
1C00
1C00
1C00
1C00
1C00
1C00
ENDCHAR
STARTCHAR Scaron
ENCODING -1
SWIDTH 634 0
DWIDTH 18 0
BBX 14 26 2 0
BITMAP
1860
0CC0
0780
0780
0000
0000
0FE0
3FF8
7838
F008
E000
E000
E000
F800
7F80
3FE0
0FF8
00F8
003C
001C
001C
001C
803C
E078
FFF0
3FC0
ENDCHAR
STARTCHAR scaron
ENCODING -1
SWIDTH 520 0
DWIDTH 15 0
BBX 12 22 2 0
BITMAP
60C0
3180
1B00
1F00
0E00
0000
0000
1FC0
7FE0
F020
E000
E000
F000
7E00
3FC0
07E0
00F0
0070
0070
C0F0
FFE0
3F80
ENDCHAR
STARTCHAR Zcaron
ENCODING -1
SWIDTH 685 0
DWIDTH 19 0
BBX 17 26 1 0
BITMAP
061800
033000
01E000
01E000
000000
000000
FFFF80
FFFF80
000780
000F00
001E00
003C00
007800
007800
00F000
01E000
03C000
078000
0F0000
0F0000
1E0000
3C0000
780000
F00000
FFFF80
FFFF80
ENDCHAR
STARTCHAR zcaron
ENCODING -1
SWIDTH 524 0
DWIDTH 15 0
BBX 12 22 1 0
BITMAP
3060
18C0
0D80
0F80
0700
0000
0000
FFF0
FFF0
00F0
01E0
03C0
03C0
0780
0F00
1E00
1C00
3C00
7800
F000
FFF0
FFF0
ENDCHAR
STARTCHAR minus
ENCODING -1
SWIDTH 837 0
DWIDTH 23 0
BBX 18 2 3 8
BITMAP
FFFFC0
FFFFC0
ENDCHAR
STARTCHAR Gbreve
ENCODING -1
SWIDTH 774 0
DWIDTH 22 0
BBX 18 27 2 0
BITMAP
060C00
071C00
03F800
01F000
000000
000000
000000
03FC00
0FFF00
1E0780
380180
700080
700000
E00000
E00000
E00000
E03FC0
E03FC0
E001C0
E001C0
E001C0
7001C0
7001C0
3801C0
1E03C0
0FFF80
03FC00
ENDCHAR
STARTCHAR gbreve
ENCODING -1
SWIDTH 634 0
DWIDTH 18 0
BBX 14 28 2 -6
BITMAP
1830
1C70
0FE0
07C0
0000
0000
0000
0F9C
3FDC
787C
703C
E03C
E01C
E01C
E01C
E01C
E01C
E03C
703C
787C
3FDC
0F9C
001C
003C
0038
2078
3FF0
1FC0
ENDCHAR
STARTCHAR Idotaccent
ENCODING -1
SWIDTH 294 0
DWIDTH 8 0
BBX 3 26 3 0
BITMAP
E0
E0
E0
00
00
00
E0
E0
E0
E0
E0
E0
E0
E0
E0
E0
E0
E0
E0
E0
E0
E0
E0
E0
E0
E0
ENDCHAR
STARTCHAR Scedilla
ENCODING -1
SWIDTH 634 0
DWIDTH 18 0
BBX 14 25 2 -5
BITMAP
0FE0
3FF8
7838
F008
E000
E000
E000
F800
7F80
3FE0
0FF8
00F8
003C
001C
001C
001C
803C
E078
FFF0
3FC0
0180
00C0
00C0
0FC0
0F80
ENDCHAR
STARTCHAR scedilla
ENCODING -1
SWIDTH 520 0
DWIDTH 15 0
BBX 12 20 2 -5
BITMAP
1FC0
7FE0
F020
E000
E000
F000
7E00
3FC0
07E0
00F0
0070
0070
C0F0
FFE0
3F80
0600
0300
0300
3F00
3E00
ENDCHAR
STARTCHAR Cacute
ENCODING -1
SWIDTH 698 0
DWIDTH 20 0
BBX 16 26 2 0
BITMAP
0070
0060
00C0
0180
0000
0000
03F8
0FFE
1E07
3803
7000
7000
E000
E000
E000
E000
E000
E000
E000
E000
7000
7000
3803
1E07
0FFE
03F8
ENDCHAR
STARTCHAR cacute
ENCODING -1
SWIDTH 549 0
DWIDTH 15 0
BBX 12 22 2 0
BITMAP
0070
00E0
01C0
0380
0700
0000
0000
0FE0
1FF0
3C10
7000
F000
E000
E000
E000
E000
E000
F000
7000
3C10
1FF0
0FE0
ENDCHAR
STARTCHAR Ccaron
ENCODING -1
SWIDTH 698 0
DWIDTH 20 0
BBX 16 26 2 0
BITMAP
0618
0330
01E0
01E0
0000
0000
03F8
0FFE
1E07
3803
7000
7000
E000
E000
E000
E000
E000
E000
E000
E000
7000
7000
3803
1E07
0FFE
03F8
ENDCHAR
STARTCHAR ccaron
ENCODING -1
SWIDTH 549 0
DWIDTH 15 0
BBX 12 22 2 0
BITMAP
1830
0C60
06C0
07C0
0380
0000
0000
0FE0
1FF0
3C10
7000
F000
E000
E000
E000
E000
E000
F000
7000
3C10
1FF0
0FE0
ENDCHAR
STARTCHAR dcroat
ENCODING -1
SWIDTH 634 0
DWIDTH 18 0
BBX 16 21 2 0
BITMAP
001C
001C
001C
01FF
01FF
001C
0F9C
3FDC
787C
703C
F03C
E01C
E01C
E01C
E01C
E01C
E03C
703C
787C
3FDC
0F9C
ENDCHAR
STARTCHAR periodcentered
ENCODING -1
SWIDTH 317 0
DWIDTH 9 0
BBX 3 3 3 8
BITMAP
E0
E0
E0
ENDCHAR
STARTCHAR Euro
ENCODING -1
SWIDTH 636 0
DWIDTH 18 0
BBX 16 20 0 0
BITMAP
00FC
03FE
0787
0E01
0E00
1C00
7FFC
FFF8
1C00
1C00
1C00
7FF0
FFE0
1C00
0E00
0E00
0F01
0787
03FE
00FC
ENDCHAR
STARTCHAR c6459
ENCODING -1
SWIDTH 500 0
DWIDTH 14 0
BBX 9 3 3 18
BITMAP
E380
E380
E380
ENDCHAR
STARTCHAR c6460
ENCODING -1
SWIDTH 500 0
DWIDTH 14 0
BBX 5 4 5 17
BITMAP
38
30
60
C0
ENDCHAR
STARTCHAR c6461
ENCODING -1
SWIDTH 500 0
DWIDTH 14 0
BBX 9 3 2 18
BITMAP
7980
FF80
CF00
ENDCHAR
STARTCHAR c6462
ENCODING -1
SWIDTH 500 0
DWIDTH 14 0
BBX 5 4 4 17
BITMAP
E0
70
30
18
ENDCHAR
STARTCHAR c6463
ENCODING -1
SWIDTH 500 0
DWIDTH 14 0
BBX 8 4 3 17
BITMAP
3C
3C
66
C3
ENDCHAR
STARTCHAR c6466
ENCODING -1
SWIDTH 500 0
DWIDTH 14 0
BBX 8 4 3 17
BITMAP
C3
66
3C
3C
ENDCHAR
STARTCHAR c6467
ENCODING -1
SWIDTH 400 0
DWIDTH 11 0
BBX 10 11 1 9
BITMAP
0700
0F00
0B00
1300
3300
6300
4300
FFC0
FFC0
0300
0300
ENDCHAR
STARTCHAR c6468
ENCODING -1
SWIDTH 500 0
DWIDTH 14 0
BBX 9 4 3 18
BITMAP
C180
E380
7F00
3E00
ENDCHAR
STARTCHAR c6469
ENCODING -1
SWIDTH 500 0
DWIDTH 14 0
BBX 3 3 6 18
BITMAP
E0
E0
E0
ENDCHAR
ENDFONT
